<?xml version="1.0" standalone="no"?>
<!DOCTYPE svg PUBLIC "-//W3C//DTD SVG 20010904//EN"
 "http://www.w3.org/TR/2001/REC-SVG-20010904/DTD/svg10.dtd">
<svg version="1.0" xmlns="http://www.w3.org/2000/svg"
 width="283.000000pt" height="283.000000pt" viewBox="0 0 283.000000 283.000000"
 preserveAspectRatio="xMidYMid meet">
<metadata>
Created by potrace 1.11, written by Peter Selinger 2001-2013
</metadata>
<g transform="translate(0.000000,283.000000) scale(0.100000,-0.100000)"
fill="#000000" stroke="none">
<path d="M0 2385 l0 -445 853 0 852 0 12 50 c16 67 44 104 96 129 119 58 253
-9 273 -136 l7 -43 368 0 369 0 0 445 0 445 -1415 0 -1415 0 0 -445z"/>
<path d="M877 1369 c-107 -25 -224 -119 -279 -224 -30 -59 -34 -63 -50 -48
-22 20 -61 20 -93 -1 -24 -16 -25 -20 -25 -130 l0 -113 -115 -5 c-103 -4 -119
-7 -148 -29 -26 -20 -43 -24 -100 -24 l-67 0 0 -397 0 -398 1415 0 1415 0 0
461 0 461 -47 -7 c-27 -4 -104 -21 -173 -38 -118 -30 -135 -32 -310 -32 -102
1 -216 6 -255 12 -38 7 -125 15 -192 19 l-123 7 0 32 c0 38 -15 55 -50 55 -19
1 -32 11 -51 44 -36 59 -105 99 -180 104 l-58 4 -30 53 c-32 57 -105 126 -163
156 -86 44 -225 61 -321 38z"/>
</g>
</svg>
